<svg width="512" height="512" viewBox="0 0 512 512" fill="none" xmlns="http://www.w3.org/2000/svg">
  <defs>
    <linearGradient id="gradient3" x1="0%" y1="0%" x2="100%" y2="100%">
      <stop offset="0%" style="stop-color:#FE3C72"/>
      <stop offset="100%" style="stop-color:#FD5564"/>
    </linearGradient>
  </defs>
  <circle cx="256" cy="256" r="250" fill="url(#gradient3)"/>
  <circle cx="256" cy="256" r="200" fill="none" stroke="rgba(255,255,255,0.3)" stroke-width="8" stroke-dasharray="20 15"/>
  <g transform="translate(140, 140)">
    <circle cx="36" cy="116" r="30" fill="white"/>
    <circle cx="196" cy="116" r="30" fill="white"/>
    <circle cx="116" cy="36" r="30" fill="white"/>
    <path d="M36 86 L36 60 Q36 36 60 36 L86 36" stroke="white" stroke-width="16" stroke-linecap="round" fill="none"/>
    <path d="M196 86 L196 60 Q196 36 172 36 L146 36" stroke="white" stroke-width="16" stroke-linecap="round" fill="none"/>
    <path d="M66 116 L166 116" stroke="white" stroke-width="16" stroke-linecap="round"/>
    <path d="M116 116 L116 180" stroke="white" stroke-width="16" stroke-linecap="round"/>
    <circle cx="116" cy="200" r="30" fill="white"/>
  </g>
  <path d="M256 200 C256 175 220 150 220 120 C220 90 256 75 256 105 C256 75 292 90 292 120 C292 150 256 175 256 200 Z" fill="white"/>
</svg>