<svg xmlns="http://www.w3.org/2000/svg" viewBox="0 0 200 200" width="200" height="200">
  <!-- Background Circle -->
  <circle cx="100" cy="100" r="100" fill="#E8739A"/>
  
  <!-- Hair Back -->
  <path d="M55 80 Q55 30 100 28 Q145 30 145 80 Q148 120 140 150 L130 140 Q135 100 130 80 
           Q125 45 100 42 Q75 45 70 80 Q65 100 70 140 L60 150 Q52 120 55 80Z" fill="#4A2810"/>
  
  <!-- Head -->
  <circle cx="100" cy="75" r="35" fill="#FADADD"/>
  
  <!-- Hair Front -->
  <path d="M65 65 Q65 38 100 35 Q135 38 135 65 Q130 45 115 40 Q100 36 85 40 Q70 45 65 65Z" fill="#4A2810"/>
  
  <!-- Hair Side Left -->
  <path d="M65 65 Q60 80 62 100 Q58 85 60 70Z" fill="#4A2810"/>
  
  <!-- Hair Side Right -->
  <path d="M135 65 Q140 80 138 100 Q142 85 140 70Z" fill="#4A2810"/>
  
  <!-- Eyes -->
  <ellipse cx="85" cy="72" rx="5" ry="5.5" fill="#2C1810"/>
  <ellipse cx="115" cy="72" rx="5" ry="5.5" fill="#2C1810"/>
  
  <!-- Eye Highlight -->
  <circle cx="87" cy="70" r="1.5" fill="white"/>
  <circle cx="117" cy="70" r="1.5" fill="white"/>
  
  <!-- Eyelashes -->
  <path d="M76 68 Q85 63 94 68" stroke="#3D2314" stroke-width="1.5" fill="none" stroke-linecap="round"/>
  <path d="M106 68 Q115 63 124 68" stroke="#3D2314" stroke-width="1.5" fill="none" stroke-linecap="round"/>
  
  <!-- Nose -->
  <path d="M100 76 Q102 82 100 84 Q98 82 100 76" fill="#F0C4C8"/>
  
  <!-- Lips -->
  <path d="M90 90 Q95 86 100 88 Q105 86 110 90" fill="#E85A7A" stroke="#E85A7A" stroke-width="1"/>
  <path d="M90 90 Q100 98 110 90" fill="#D44A6A" stroke="#D44A6A" stroke-width="1"/>
  
  <!-- Ears -->
  <ellipse cx="64" cy="76" rx="5" ry="7" fill="#FADADD"/>
  <ellipse cx="136" cy="76" rx="5" ry="7" fill="#FADADD"/>
  
  <!-- Earrings -->
  <circle cx="63" cy="87" r="3" fill="#FFD700"/>
  <circle cx="137" cy="87" r="3" fill="#FFD700"/>
  
  <!-- Neck -->
  <rect x="90" y="108" width="20" height="15" fill="#FADADD"/>
  
  <!-- Necklace -->
  <path d="M82 120 Q100 130 118 120" stroke="#FFD700" stroke-width="1.5" fill="none"/>
  <circle cx="100" cy="128" r="3" fill="#FFD700"/>
  
  <!-- Dress/Body -->
  <path d="M40 200 Q40 150 65 132 Q80 123 100 120 Q120 123 135 132 Q160 150 160 200Z" fill="#C2185B"/>
  
  <!-- Dress Neckline -->
  <path d="M78 125 Q100 140 122 125" stroke="#A01648" stroke-width="1.5" fill="none"/>
</svg>